<mxfile host="app.diagrams.net" modified="2020-09-22T05:52:45.901Z" agent="5.0 (Windows)" etag="TWW7P-Kz_o-MCb8Z9R98" version="13.7.3" type="github">
  <diagram id="7ZjfI7yGT5TT4rhwR_bh" name="Page-1">
    <mxGraphModel dx="2272" dy="791" grid="1" gridSize="10" guides="1" tooltips="1" connect="1" arrows="1" fold="1" page="1" pageScale="1" pageWidth="850" pageHeight="1100" math="0" shadow="0">
      <root>
        <mxCell id="0" />
        <mxCell id="1" parent="0" />
        <mxCell id="T58Amd36gqd1ZXx2-vAG-43" value="" style="rounded=0;whiteSpace=wrap;html=1;direction=south;" vertex="1" parent="1">
          <mxGeometry x="355" y="180" width="40" height="80" as="geometry" />
        </mxCell>
        <mxCell id="T58Amd36gqd1ZXx2-vAG-44" value="" style="rounded=0;whiteSpace=wrap;html=1;" vertex="1" parent="1">
          <mxGeometry x="770" y="180" width="150" height="40" as="geometry" />
        </mxCell>
        <mxCell id="T58Amd36gqd1ZXx2-vAG-46" value="Final Word" style="rounded=0;whiteSpace=wrap;html=1;" vertex="1" parent="1">
          <mxGeometry x="595" y="10" width="120" height="60" as="geometry" />
        </mxCell>
        <mxCell id="T58Amd36gqd1ZXx2-vAG-1" value="" style="shape=table;html=1;whiteSpace=wrap;startSize=0;container=1;collapsible=0;childLayout=tableLayout;" vertex="1" parent="1">
          <mxGeometry y="420" width="300" height="85" as="geometry" />
        </mxCell>
        <mxCell id="T58Amd36gqd1ZXx2-vAG-6" value="" style="shape=partialRectangle;html=1;whiteSpace=wrap;collapsible=0;dropTarget=0;pointerEvents=0;fillColor=none;top=0;left=0;bottom=0;right=0;points=[[0,0.5],[1,0.5]];portConstraint=eastwest;" vertex="1" parent="T58Amd36gqd1ZXx2-vAG-1">
          <mxGeometry width="300" height="16" as="geometry" />
        </mxCell>
        <mxCell id="T58Amd36gqd1ZXx2-vAG-7" value="" style="shape=partialRectangle;html=1;whiteSpace=wrap;connectable=0;fillColor=none;top=0;left=0;bottom=0;right=0;overflow=hidden;" vertex="1" parent="T58Amd36gqd1ZXx2-vAG-6">
          <mxGeometry width="99" height="16" as="geometry" />
        </mxCell>
        <mxCell id="T58Amd36gqd1ZXx2-vAG-8" value="" style="shape=partialRectangle;html=1;whiteSpace=wrap;connectable=0;fillColor=none;top=0;left=0;bottom=0;right=0;overflow=hidden;" vertex="1" parent="T58Amd36gqd1ZXx2-vAG-6">
          <mxGeometry x="99" width="102" height="16" as="geometry" />
        </mxCell>
        <mxCell id="T58Amd36gqd1ZXx2-vAG-9" value="" style="shape=partialRectangle;html=1;whiteSpace=wrap;connectable=0;fillColor=none;top=0;left=0;bottom=0;right=0;overflow=hidden;" vertex="1" parent="T58Amd36gqd1ZXx2-vAG-6">
          <mxGeometry x="201" width="99" height="16" as="geometry" />
        </mxCell>
        <mxCell id="T58Amd36gqd1ZXx2-vAG-18" value="" style="shape=partialRectangle;html=1;whiteSpace=wrap;collapsible=0;dropTarget=0;pointerEvents=0;fillColor=none;top=0;left=0;bottom=0;right=0;points=[[0,0.5],[1,0.5]];portConstraint=eastwest;" vertex="1" parent="T58Amd36gqd1ZXx2-vAG-1">
          <mxGeometry y="16" width="300" height="16" as="geometry" />
        </mxCell>
        <mxCell id="T58Amd36gqd1ZXx2-vAG-19" value="" style="shape=partialRectangle;html=1;whiteSpace=wrap;connectable=0;fillColor=none;top=0;left=0;bottom=0;right=0;overflow=hidden;" vertex="1" parent="T58Amd36gqd1ZXx2-vAG-18">
          <mxGeometry width="99" height="16" as="geometry" />
        </mxCell>
        <mxCell id="T58Amd36gqd1ZXx2-vAG-20" value="" style="shape=partialRectangle;html=1;whiteSpace=wrap;connectable=0;fillColor=none;top=0;left=0;bottom=0;right=0;overflow=hidden;" vertex="1" parent="T58Amd36gqd1ZXx2-vAG-18">
          <mxGeometry x="99" width="102" height="16" as="geometry" />
        </mxCell>
        <mxCell id="T58Amd36gqd1ZXx2-vAG-21" value="" style="shape=partialRectangle;html=1;whiteSpace=wrap;connectable=0;fillColor=none;top=0;left=0;bottom=0;right=0;overflow=hidden;" vertex="1" parent="T58Amd36gqd1ZXx2-vAG-18">
          <mxGeometry x="201" width="99" height="16" as="geometry" />
        </mxCell>
        <mxCell id="T58Amd36gqd1ZXx2-vAG-14" value="" style="shape=partialRectangle;html=1;whiteSpace=wrap;collapsible=0;dropTarget=0;pointerEvents=0;fillColor=none;top=0;left=0;bottom=0;right=0;points=[[0,0.5],[1,0.5]];portConstraint=eastwest;" vertex="1" parent="T58Amd36gqd1ZXx2-vAG-1">
          <mxGeometry y="32" width="300" height="20" as="geometry" />
        </mxCell>
        <mxCell id="T58Amd36gqd1ZXx2-vAG-15" value="" style="shape=partialRectangle;html=1;whiteSpace=wrap;connectable=0;fillColor=none;top=0;left=0;bottom=0;right=0;overflow=hidden;" vertex="1" parent="T58Amd36gqd1ZXx2-vAG-14">
          <mxGeometry width="99" height="20" as="geometry" />
        </mxCell>
        <mxCell id="T58Amd36gqd1ZXx2-vAG-16" value="" style="shape=partialRectangle;html=1;whiteSpace=wrap;connectable=0;fillColor=none;top=0;left=0;bottom=0;right=0;overflow=hidden;" vertex="1" parent="T58Amd36gqd1ZXx2-vAG-14">
          <mxGeometry x="99" width="102" height="20" as="geometry" />
        </mxCell>
        <mxCell id="T58Amd36gqd1ZXx2-vAG-17" value="" style="shape=partialRectangle;html=1;whiteSpace=wrap;connectable=0;fillColor=none;top=0;left=0;bottom=0;right=0;overflow=hidden;" vertex="1" parent="T58Amd36gqd1ZXx2-vAG-14">
          <mxGeometry x="201" width="99" height="20" as="geometry" />
        </mxCell>
        <mxCell id="T58Amd36gqd1ZXx2-vAG-10" value="" style="shape=partialRectangle;html=1;whiteSpace=wrap;collapsible=0;dropTarget=0;pointerEvents=0;fillColor=none;top=0;left=0;bottom=0;right=0;points=[[0,0.5],[1,0.5]];portConstraint=eastwest;" vertex="1" parent="T58Amd36gqd1ZXx2-vAG-1">
          <mxGeometry y="52" width="300" height="17" as="geometry" />
        </mxCell>
        <mxCell id="T58Amd36gqd1ZXx2-vAG-11" value="" style="shape=partialRectangle;html=1;whiteSpace=wrap;connectable=0;fillColor=none;top=0;left=0;bottom=0;right=0;overflow=hidden;" vertex="1" parent="T58Amd36gqd1ZXx2-vAG-10">
          <mxGeometry width="99" height="17" as="geometry" />
        </mxCell>
        <mxCell id="T58Amd36gqd1ZXx2-vAG-12" value="" style="shape=partialRectangle;html=1;whiteSpace=wrap;connectable=0;fillColor=none;top=0;left=0;bottom=0;right=0;overflow=hidden;" vertex="1" parent="T58Amd36gqd1ZXx2-vAG-10">
          <mxGeometry x="99" width="102" height="17" as="geometry" />
        </mxCell>
        <mxCell id="T58Amd36gqd1ZXx2-vAG-13" value="" style="shape=partialRectangle;html=1;whiteSpace=wrap;connectable=0;fillColor=none;top=0;left=0;bottom=0;right=0;overflow=hidden;" vertex="1" parent="T58Amd36gqd1ZXx2-vAG-10">
          <mxGeometry x="201" width="99" height="17" as="geometry" />
        </mxCell>
        <mxCell id="T58Amd36gqd1ZXx2-vAG-2" value="" style="shape=partialRectangle;html=1;whiteSpace=wrap;collapsible=0;dropTarget=0;pointerEvents=0;fillColor=none;top=0;left=0;bottom=0;right=0;points=[[0,0.5],[1,0.5]];portConstraint=eastwest;" vertex="1" parent="T58Amd36gqd1ZXx2-vAG-1">
          <mxGeometry y="69" width="300" height="16" as="geometry" />
        </mxCell>
        <mxCell id="T58Amd36gqd1ZXx2-vAG-3" value="" style="shape=partialRectangle;html=1;whiteSpace=wrap;connectable=0;fillColor=none;top=0;left=0;bottom=0;right=0;overflow=hidden;" vertex="1" parent="T58Amd36gqd1ZXx2-vAG-2">
          <mxGeometry width="99" height="16" as="geometry" />
        </mxCell>
        <mxCell id="T58Amd36gqd1ZXx2-vAG-4" value="" style="shape=partialRectangle;html=1;whiteSpace=wrap;connectable=0;fillColor=none;top=0;left=0;bottom=0;right=0;overflow=hidden;" vertex="1" parent="T58Amd36gqd1ZXx2-vAG-2">
          <mxGeometry x="99" width="102" height="16" as="geometry" />
        </mxCell>
        <mxCell id="T58Amd36gqd1ZXx2-vAG-5" value="" style="shape=partialRectangle;html=1;whiteSpace=wrap;connectable=0;fillColor=none;top=0;left=0;bottom=0;right=0;overflow=hidden;" vertex="1" parent="T58Amd36gqd1ZXx2-vAG-2">
          <mxGeometry x="201" width="99" height="16" as="geometry" />
        </mxCell>
        <mxCell id="T58Amd36gqd1ZXx2-vAG-22" value="" style="shape=table;html=1;whiteSpace=wrap;startSize=0;container=1;collapsible=0;childLayout=tableLayout;" vertex="1" parent="1">
          <mxGeometry x="370" y="419" width="300" height="86" as="geometry" />
        </mxCell>
        <mxCell id="T58Amd36gqd1ZXx2-vAG-27" value="" style="shape=partialRectangle;html=1;whiteSpace=wrap;collapsible=0;dropTarget=0;pointerEvents=0;fillColor=none;top=0;left=0;bottom=0;right=0;points=[[0,0.5],[1,0.5]];portConstraint=eastwest;" vertex="1" parent="T58Amd36gqd1ZXx2-vAG-22">
          <mxGeometry width="300" height="18" as="geometry" />
        </mxCell>
        <mxCell id="T58Amd36gqd1ZXx2-vAG-28" value="" style="shape=partialRectangle;html=1;whiteSpace=wrap;connectable=0;fillColor=none;top=0;left=0;bottom=0;right=0;overflow=hidden;" vertex="1" parent="T58Amd36gqd1ZXx2-vAG-27">
          <mxGeometry width="99" height="18" as="geometry" />
        </mxCell>
        <mxCell id="T58Amd36gqd1ZXx2-vAG-29" value="" style="shape=partialRectangle;html=1;whiteSpace=wrap;connectable=0;fillColor=none;top=0;left=0;bottom=0;right=0;overflow=hidden;" vertex="1" parent="T58Amd36gqd1ZXx2-vAG-27">
          <mxGeometry x="99" width="102" height="18" as="geometry" />
        </mxCell>
        <mxCell id="T58Amd36gqd1ZXx2-vAG-30" value="" style="shape=partialRectangle;html=1;whiteSpace=wrap;connectable=0;fillColor=none;top=0;left=0;bottom=0;right=0;overflow=hidden;" vertex="1" parent="T58Amd36gqd1ZXx2-vAG-27">
          <mxGeometry x="201" width="99" height="18" as="geometry" />
        </mxCell>
        <mxCell id="T58Amd36gqd1ZXx2-vAG-23" value="" style="shape=partialRectangle;html=1;whiteSpace=wrap;collapsible=0;dropTarget=0;pointerEvents=0;fillColor=none;top=0;left=0;bottom=0;right=0;points=[[0,0.5],[1,0.5]];portConstraint=eastwest;" vertex="1" parent="T58Amd36gqd1ZXx2-vAG-22">
          <mxGeometry y="18" width="300" height="20" as="geometry" />
        </mxCell>
        <mxCell id="T58Amd36gqd1ZXx2-vAG-24" value="" style="shape=partialRectangle;html=1;whiteSpace=wrap;connectable=0;fillColor=none;top=0;left=0;bottom=0;right=0;overflow=hidden;" vertex="1" parent="T58Amd36gqd1ZXx2-vAG-23">
          <mxGeometry width="99" height="20" as="geometry" />
        </mxCell>
        <mxCell id="T58Amd36gqd1ZXx2-vAG-25" value="" style="shape=partialRectangle;html=1;whiteSpace=wrap;connectable=0;fillColor=none;top=0;left=0;bottom=0;right=0;overflow=hidden;" vertex="1" parent="T58Amd36gqd1ZXx2-vAG-23">
          <mxGeometry x="99" width="102" height="20" as="geometry" />
        </mxCell>
        <mxCell id="T58Amd36gqd1ZXx2-vAG-26" value="" style="shape=partialRectangle;html=1;whiteSpace=wrap;connectable=0;fillColor=none;top=0;left=0;bottom=0;right=0;overflow=hidden;" vertex="1" parent="T58Amd36gqd1ZXx2-vAG-23">
          <mxGeometry x="201" width="99" height="20" as="geometry" />
        </mxCell>
        <mxCell id="T58Amd36gqd1ZXx2-vAG-31" value="" style="shape=partialRectangle;html=1;whiteSpace=wrap;collapsible=0;dropTarget=0;pointerEvents=0;fillColor=none;top=0;left=0;bottom=0;right=0;points=[[0,0.5],[1,0.5]];portConstraint=eastwest;" vertex="1" parent="T58Amd36gqd1ZXx2-vAG-22">
          <mxGeometry y="38" width="300" height="18" as="geometry" />
        </mxCell>
        <mxCell id="T58Amd36gqd1ZXx2-vAG-32" value="" style="shape=partialRectangle;html=1;whiteSpace=wrap;connectable=0;fillColor=none;top=0;left=0;bottom=0;right=0;overflow=hidden;" vertex="1" parent="T58Amd36gqd1ZXx2-vAG-31">
          <mxGeometry width="99" height="18" as="geometry" />
        </mxCell>
        <mxCell id="T58Amd36gqd1ZXx2-vAG-33" value="" style="shape=partialRectangle;html=1;whiteSpace=wrap;connectable=0;fillColor=none;top=0;left=0;bottom=0;right=0;overflow=hidden;" vertex="1" parent="T58Amd36gqd1ZXx2-vAG-31">
          <mxGeometry x="99" width="102" height="18" as="geometry" />
        </mxCell>
        <mxCell id="T58Amd36gqd1ZXx2-vAG-34" value="" style="shape=partialRectangle;html=1;whiteSpace=wrap;connectable=0;fillColor=none;top=0;left=0;bottom=0;right=0;overflow=hidden;" vertex="1" parent="T58Amd36gqd1ZXx2-vAG-31">
          <mxGeometry x="201" width="99" height="18" as="geometry" />
        </mxCell>
        <mxCell id="T58Amd36gqd1ZXx2-vAG-35" value="" style="shape=partialRectangle;html=1;whiteSpace=wrap;collapsible=0;dropTarget=0;pointerEvents=0;fillColor=none;top=0;left=0;bottom=0;right=0;points=[[0,0.5],[1,0.5]];portConstraint=eastwest;" vertex="1" parent="T58Amd36gqd1ZXx2-vAG-22">
          <mxGeometry y="56" width="300" height="16" as="geometry" />
        </mxCell>
        <mxCell id="T58Amd36gqd1ZXx2-vAG-36" value="" style="shape=partialRectangle;html=1;whiteSpace=wrap;connectable=0;fillColor=none;top=0;left=0;bottom=0;right=0;overflow=hidden;" vertex="1" parent="T58Amd36gqd1ZXx2-vAG-35">
          <mxGeometry width="99" height="16" as="geometry" />
        </mxCell>
        <mxCell id="T58Amd36gqd1ZXx2-vAG-37" value="" style="shape=partialRectangle;html=1;whiteSpace=wrap;connectable=0;fillColor=none;top=0;left=0;bottom=0;right=0;overflow=hidden;" vertex="1" parent="T58Amd36gqd1ZXx2-vAG-35">
          <mxGeometry x="99" width="102" height="16" as="geometry" />
        </mxCell>
        <mxCell id="T58Amd36gqd1ZXx2-vAG-38" value="" style="shape=partialRectangle;html=1;whiteSpace=wrap;connectable=0;fillColor=none;top=0;left=0;bottom=0;right=0;overflow=hidden;" vertex="1" parent="T58Amd36gqd1ZXx2-vAG-35">
          <mxGeometry x="201" width="99" height="16" as="geometry" />
        </mxCell>
        <mxCell id="T58Amd36gqd1ZXx2-vAG-39" value="" style="shape=partialRectangle;html=1;whiteSpace=wrap;collapsible=0;dropTarget=0;pointerEvents=0;fillColor=none;top=0;left=0;bottom=0;right=0;points=[[0,0.5],[1,0.5]];portConstraint=eastwest;" vertex="1" parent="T58Amd36gqd1ZXx2-vAG-22">
          <mxGeometry y="72" width="300" height="14" as="geometry" />
        </mxCell>
        <mxCell id="T58Amd36gqd1ZXx2-vAG-40" value="" style="shape=partialRectangle;html=1;whiteSpace=wrap;connectable=0;fillColor=none;top=0;left=0;bottom=0;right=0;overflow=hidden;" vertex="1" parent="T58Amd36gqd1ZXx2-vAG-39">
          <mxGeometry width="99" height="14" as="geometry" />
        </mxCell>
        <mxCell id="T58Amd36gqd1ZXx2-vAG-41" value="" style="shape=partialRectangle;html=1;whiteSpace=wrap;connectable=0;fillColor=none;top=0;left=0;bottom=0;right=0;overflow=hidden;" vertex="1" parent="T58Amd36gqd1ZXx2-vAG-39">
          <mxGeometry x="99" width="102" height="14" as="geometry" />
        </mxCell>
        <mxCell id="T58Amd36gqd1ZXx2-vAG-42" value="" style="shape=partialRectangle;html=1;whiteSpace=wrap;connectable=0;fillColor=none;top=0;left=0;bottom=0;right=0;overflow=hidden;" vertex="1" parent="T58Amd36gqd1ZXx2-vAG-39">
          <mxGeometry x="201" width="99" height="14" as="geometry" />
        </mxCell>
        <mxCell id="T58Amd36gqd1ZXx2-vAG-47" value="" style="rounded=0;whiteSpace=wrap;html=1;direction=south;" vertex="1" parent="1">
          <mxGeometry x="400" y="550" width="30" height="50" as="geometry" />
        </mxCell>
        <mxCell id="T58Amd36gqd1ZXx2-vAG-48" value="" style="rounded=0;whiteSpace=wrap;html=1;direction=south;" vertex="1" parent="1">
          <mxGeometry x="450" y="550" width="30" height="50" as="geometry" />
        </mxCell>
        <mxCell id="T58Amd36gqd1ZXx2-vAG-49" value="" style="rounded=0;whiteSpace=wrap;html=1;direction=south;" vertex="1" parent="1">
          <mxGeometry x="500" y="550" width="30" height="50" as="geometry" />
        </mxCell>
        <mxCell id="T58Amd36gqd1ZXx2-vAG-50" value="" style="rounded=0;whiteSpace=wrap;html=1;" vertex="1" parent="1">
          <mxGeometry x="610" y="550" width="30" height="50" as="geometry" />
        </mxCell>
        <mxCell id="T58Amd36gqd1ZXx2-vAG-51" value="" style="rounded=0;whiteSpace=wrap;html=1;" vertex="1" parent="1">
          <mxGeometry x="790" y="550" width="30" height="50" as="geometry" />
        </mxCell>
        <mxCell id="T58Amd36gqd1ZXx2-vAG-52" value="" style="rounded=0;whiteSpace=wrap;html=1;" vertex="1" parent="1">
          <mxGeometry x="840" y="550" width="30" height="50" as="geometry" />
        </mxCell>
        <mxCell id="T58Amd36gqd1ZXx2-vAG-53" value="" style="rounded=0;whiteSpace=wrap;html=1;" vertex="1" parent="1">
          <mxGeometry x="890" y="550" width="30" height="50" as="geometry" />
        </mxCell>
        <mxCell id="T58Amd36gqd1ZXx2-vAG-80" value="" style="rounded=0;whiteSpace=wrap;html=1;" vertex="1" parent="1">
          <mxGeometry y="560" width="60" height="30" as="geometry" />
        </mxCell>
        <mxCell id="T58Amd36gqd1ZXx2-vAG-81" value="" style="rounded=0;whiteSpace=wrap;html=1;" vertex="1" parent="1">
          <mxGeometry y="590" width="60" height="30" as="geometry" />
        </mxCell>
        <mxCell id="T58Amd36gqd1ZXx2-vAG-82" value="" style="rounded=0;whiteSpace=wrap;html=1;" vertex="1" parent="1">
          <mxGeometry y="620" width="60" height="40" as="geometry" />
        </mxCell>
        <mxCell id="T58Amd36gqd1ZXx2-vAG-83" value="" style="rounded=0;whiteSpace=wrap;html=1;" vertex="1" parent="1">
          <mxGeometry y="650" width="60" height="30" as="geometry" />
        </mxCell>
        <mxCell id="T58Amd36gqd1ZXx2-vAG-84" value="" style="rounded=0;whiteSpace=wrap;html=1;" vertex="1" parent="1">
          <mxGeometry y="680" width="60" height="30" as="geometry" />
        </mxCell>
        <mxCell id="T58Amd36gqd1ZXx2-vAG-85" value="" style="rounded=0;whiteSpace=wrap;html=1;" vertex="1" parent="1">
          <mxGeometry y="710" width="60" height="30" as="geometry" />
        </mxCell>
        <mxCell id="T58Amd36gqd1ZXx2-vAG-86" value="" style="rounded=0;whiteSpace=wrap;html=1;" vertex="1" parent="1">
          <mxGeometry y="740" width="60" height="30" as="geometry" />
        </mxCell>
        <mxCell id="T58Amd36gqd1ZXx2-vAG-87" value="" style="rounded=0;whiteSpace=wrap;html=1;" vertex="1" parent="1">
          <mxGeometry y="770" width="60" height="30" as="geometry" />
        </mxCell>
        <mxCell id="T58Amd36gqd1ZXx2-vAG-88" value="" style="rounded=0;whiteSpace=wrap;html=1;" vertex="1" parent="1">
          <mxGeometry x="70" y="560" width="60" height="30" as="geometry" />
        </mxCell>
        <mxCell id="T58Amd36gqd1ZXx2-vAG-89" value="" style="rounded=0;whiteSpace=wrap;html=1;" vertex="1" parent="1">
          <mxGeometry x="70" y="590" width="60" height="30" as="geometry" />
        </mxCell>
        <mxCell id="T58Amd36gqd1ZXx2-vAG-90" value="" style="rounded=0;whiteSpace=wrap;html=1;" vertex="1" parent="1">
          <mxGeometry x="70" y="620" width="60" height="30" as="geometry" />
        </mxCell>
        <mxCell id="T58Amd36gqd1ZXx2-vAG-91" value="" style="rounded=0;whiteSpace=wrap;html=1;" vertex="1" parent="1">
          <mxGeometry x="70" y="650" width="60" height="30" as="geometry" />
        </mxCell>
        <mxCell id="T58Amd36gqd1ZXx2-vAG-92" value="" style="rounded=0;whiteSpace=wrap;html=1;" vertex="1" parent="1">
          <mxGeometry x="70" y="680" width="60" height="30" as="geometry" />
        </mxCell>
        <mxCell id="T58Amd36gqd1ZXx2-vAG-94" value="" style="rounded=0;whiteSpace=wrap;html=1;" vertex="1" parent="1">
          <mxGeometry x="70" y="710" width="60" height="30" as="geometry" />
        </mxCell>
        <mxCell id="T58Amd36gqd1ZXx2-vAG-95" value="" style="rounded=0;whiteSpace=wrap;html=1;" vertex="1" parent="1">
          <mxGeometry x="70" y="740" width="60" height="30" as="geometry" />
        </mxCell>
        <mxCell id="T58Amd36gqd1ZXx2-vAG-96" value="" style="rounded=0;whiteSpace=wrap;html=1;" vertex="1" parent="1">
          <mxGeometry x="70" y="770" width="60" height="30" as="geometry" />
        </mxCell>
        <mxCell id="T58Amd36gqd1ZXx2-vAG-97" value="" style="endArrow=none;dashed=1;html=1;dashPattern=1 3;strokeWidth=2;" edge="1" parent="1">
          <mxGeometry width="50" height="50" relative="1" as="geometry">
            <mxPoint x="140" y="710" as="sourcePoint" />
            <mxPoint x="210" y="710" as="targetPoint" />
          </mxGeometry>
        </mxCell>
        <mxCell id="T58Amd36gqd1ZXx2-vAG-98" value="" style="rounded=0;whiteSpace=wrap;html=1;" vertex="1" parent="1">
          <mxGeometry x="240" y="560" width="60" height="30" as="geometry" />
        </mxCell>
        <mxCell id="T58Amd36gqd1ZXx2-vAG-99" value="" style="rounded=0;whiteSpace=wrap;html=1;" vertex="1" parent="1">
          <mxGeometry x="240" y="590" width="60" height="30" as="geometry" />
        </mxCell>
        <mxCell id="T58Amd36gqd1ZXx2-vAG-100" value="" style="rounded=0;whiteSpace=wrap;html=1;" vertex="1" parent="1">
          <mxGeometry x="240" y="620" width="60" height="30" as="geometry" />
        </mxCell>
        <mxCell id="T58Amd36gqd1ZXx2-vAG-102" value="" style="rounded=0;whiteSpace=wrap;html=1;" vertex="1" parent="1">
          <mxGeometry x="240" y="650" width="60" height="30" as="geometry" />
        </mxCell>
        <mxCell id="T58Amd36gqd1ZXx2-vAG-103" value="" style="rounded=0;whiteSpace=wrap;html=1;" vertex="1" parent="1">
          <mxGeometry x="240" y="680" width="60" height="30" as="geometry" />
        </mxCell>
        <mxCell id="T58Amd36gqd1ZXx2-vAG-104" value="" style="rounded=0;whiteSpace=wrap;html=1;" vertex="1" parent="1">
          <mxGeometry x="240" y="710" width="60" height="30" as="geometry" />
        </mxCell>
        <mxCell id="T58Amd36gqd1ZXx2-vAG-105" value="" style="rounded=0;whiteSpace=wrap;html=1;" vertex="1" parent="1">
          <mxGeometry x="240" y="740" width="60" height="30" as="geometry" />
        </mxCell>
        <mxCell id="T58Amd36gqd1ZXx2-vAG-106" value="" style="rounded=0;whiteSpace=wrap;html=1;" vertex="1" parent="1">
          <mxGeometry x="240" y="770" width="60" height="30" as="geometry" />
        </mxCell>
        <mxCell id="T58Amd36gqd1ZXx2-vAG-107" value="" style="ellipse;whiteSpace=wrap;html=1;aspect=fixed;rounded=0;" vertex="1" parent="1">
          <mxGeometry x="580" y="220" width="40" height="40" as="geometry" />
        </mxCell>
        <mxCell id="T58Amd36gqd1ZXx2-vAG-108" value="x1^(w)x1^(p)" style="rounded=0;whiteSpace=wrap;html=1;" vertex="1" parent="1">
          <mxGeometry y="860" width="70" height="40" as="geometry" />
        </mxCell>
        <mxCell id="T58Amd36gqd1ZXx2-vAG-109" value="&lt;br&gt;x2^(w)x2^(p)&lt;br&gt;" style="rounded=0;whiteSpace=wrap;html=1;" vertex="1" parent="1">
          <mxGeometry x="90" y="860" width="70" height="40" as="geometry" />
        </mxCell>
        <mxCell id="T58Amd36gqd1ZXx2-vAG-110" value="&lt;br&gt;x3^(w)x3^(p)&lt;br&gt;" style="rounded=0;whiteSpace=wrap;html=1;" vertex="1" parent="1">
          <mxGeometry x="180" y="860" width="70" height="40" as="geometry" />
        </mxCell>
        <mxCell id="T58Amd36gqd1ZXx2-vAG-111" value="&lt;br&gt;xn^(w)xn^(p)&lt;br&gt;" style="rounded=0;whiteSpace=wrap;html=1;" vertex="1" parent="1">
          <mxGeometry x="340" y="860" width="70" height="40" as="geometry" />
        </mxCell>
        <mxCell id="T58Amd36gqd1ZXx2-vAG-112" value="" style="endArrow=none;dashed=1;html=1;dashPattern=1 3;strokeWidth=2;" edge="1" parent="1">
          <mxGeometry width="50" height="50" relative="1" as="geometry">
            <mxPoint x="270" y="880" as="sourcePoint" />
            <mxPoint x="320" y="880" as="targetPoint" />
          </mxGeometry>
        </mxCell>
        <mxCell id="T58Amd36gqd1ZXx2-vAG-113" value="" style="endArrow=classic;html=1;exitX=0.5;exitY=0;exitDx=0;exitDy=0;entryX=0.9;entryY=1;entryDx=0;entryDy=0;entryPerimeter=0;" edge="1" parent="1" source="T58Amd36gqd1ZXx2-vAG-53" target="T58Amd36gqd1ZXx2-vAG-44">
          <mxGeometry width="50" height="50" relative="1" as="geometry">
            <mxPoint x="640" y="450" as="sourcePoint" />
            <mxPoint x="690" y="400" as="targetPoint" />
          </mxGeometry>
        </mxCell>
        <mxCell id="T58Amd36gqd1ZXx2-vAG-114" value="" style="endArrow=classic;html=1;exitX=0.25;exitY=0;exitDx=0;exitDy=0;entryX=1;entryY=0.5;entryDx=0;entryDy=0;" edge="1" parent="1" source="T58Amd36gqd1ZXx2-vAG-53" target="T58Amd36gqd1ZXx2-vAG-107">
          <mxGeometry width="50" height="50" relative="1" as="geometry">
            <mxPoint x="640" y="450" as="sourcePoint" />
            <mxPoint x="898" y="240" as="targetPoint" />
            <Array as="points">
              <mxPoint x="898" y="240" />
            </Array>
          </mxGeometry>
        </mxCell>
        <mxCell id="T58Amd36gqd1ZXx2-vAG-115" value="" style="endArrow=classic;html=1;exitX=0;exitY=0;exitDx=0;exitDy=0;entryX=1;entryY=0.5;entryDx=0;entryDy=0;" edge="1" parent="1" source="T58Amd36gqd1ZXx2-vAG-53" target="T58Amd36gqd1ZXx2-vAG-35">
          <mxGeometry width="50" height="50" relative="1" as="geometry">
            <mxPoint x="640" y="450" as="sourcePoint" />
            <mxPoint x="690" y="400" as="targetPoint" />
            <Array as="points">
              <mxPoint x="890" y="480" />
            </Array>
          </mxGeometry>
        </mxCell>
        <mxCell id="T58Amd36gqd1ZXx2-vAG-116" value="" style="endArrow=classic;html=1;exitX=0.75;exitY=0;exitDx=0;exitDy=0;entryX=0;entryY=0.5;entryDx=0;entryDy=0;" edge="1" parent="1" source="T58Amd36gqd1ZXx2-vAG-43" target="T58Amd36gqd1ZXx2-vAG-107">
          <mxGeometry width="50" height="50" relative="1" as="geometry">
            <mxPoint x="640" y="450" as="sourcePoint" />
            <mxPoint x="690" y="400" as="targetPoint" />
          </mxGeometry>
        </mxCell>
        <mxCell id="T58Amd36gqd1ZXx2-vAG-118" value="" style="endArrow=classic;html=1;exitX=0.25;exitY=0;exitDx=0;exitDy=0;entryX=0;entryY=0.5;entryDx=0;entryDy=0;" edge="1" parent="1" source="T58Amd36gqd1ZXx2-vAG-43" target="T58Amd36gqd1ZXx2-vAG-44">
          <mxGeometry width="50" height="50" relative="1" as="geometry">
            <mxPoint x="640" y="450" as="sourcePoint" />
            <mxPoint x="690" y="400" as="targetPoint" />
          </mxGeometry>
        </mxCell>
        <mxCell id="T58Amd36gqd1ZXx2-vAG-119" value="" style="endArrow=classic;html=1;exitX=0.553;exitY=-0.025;exitDx=0;exitDy=0;exitPerimeter=0;" edge="1" parent="1" source="T58Amd36gqd1ZXx2-vAG-44">
          <mxGeometry width="50" height="50" relative="1" as="geometry">
            <mxPoint x="640" y="450" as="sourcePoint" />
            <mxPoint x="790" y="40" as="targetPoint" />
            <Array as="points">
              <mxPoint x="853" y="50" />
              <mxPoint x="830" y="40" />
            </Array>
          </mxGeometry>
        </mxCell>
        <mxCell id="T58Amd36gqd1ZXx2-vAG-120" value="" style="html=1;shape=mxgraph.flowchart.annotation_2;align=left;labelPosition=right;rounded=0;direction=north;" vertex="1" parent="1">
          <mxGeometry x="550" y="150" width="100" height="50" as="geometry" />
        </mxCell>
        <mxCell id="T58Amd36gqd1ZXx2-vAG-123" value="" style="line;strokeWidth=2;direction=south;html=1;rounded=0;" vertex="1" parent="1">
          <mxGeometry x="595" y="200" width="10" height="20" as="geometry" />
        </mxCell>
        <mxCell id="T58Amd36gqd1ZXx2-vAG-124" value="" style="endArrow=none;dashed=1;html=1;" edge="1" parent="1">
          <mxGeometry width="50" height="50" relative="1" as="geometry">
            <mxPoint x="550" y="570" as="sourcePoint" />
            <mxPoint x="590" y="570" as="targetPoint" />
          </mxGeometry>
        </mxCell>
        <mxCell id="T58Amd36gqd1ZXx2-vAG-125" value="" style="endArrow=none;dashed=1;html=1;" edge="1" parent="1">
          <mxGeometry width="50" height="50" relative="1" as="geometry">
            <mxPoint x="690" y="570" as="sourcePoint" />
            <mxPoint x="730" y="570" as="targetPoint" />
          </mxGeometry>
        </mxCell>
        <mxCell id="T58Amd36gqd1ZXx2-vAG-126" value="" style="endArrow=classic;html=1;exitX=0.25;exitY=0;exitDx=0;exitDy=0;entryX=0.25;entryY=1;entryDx=0;entryDy=0;" edge="1" parent="1" source="T58Amd36gqd1ZXx2-vAG-47" target="T58Amd36gqd1ZXx2-vAG-48">
          <mxGeometry width="50" height="50" relative="1" as="geometry">
            <mxPoint x="640" y="450" as="sourcePoint" />
            <mxPoint x="690" y="400" as="targetPoint" />
          </mxGeometry>
        </mxCell>
        <mxCell id="T58Amd36gqd1ZXx2-vAG-127" value="" style="endArrow=classic;html=1;exitX=0.5;exitY=1;exitDx=0;exitDy=0;entryX=0.5;entryY=0;entryDx=0;entryDy=0;" edge="1" parent="1" source="T58Amd36gqd1ZXx2-vAG-48" target="T58Amd36gqd1ZXx2-vAG-47">
          <mxGeometry width="50" height="50" relative="1" as="geometry">
            <mxPoint x="440" y="580" as="sourcePoint" />
            <mxPoint x="690" y="400" as="targetPoint" />
          </mxGeometry>
        </mxCell>
        <mxCell id="T58Amd36gqd1ZXx2-vAG-128" value="" style="endArrow=classic;html=1;exitX=0.25;exitY=0;exitDx=0;exitDy=0;" edge="1" parent="1" source="T58Amd36gqd1ZXx2-vAG-48">
          <mxGeometry width="50" height="50" relative="1" as="geometry">
            <mxPoint x="640" y="450" as="sourcePoint" />
            <mxPoint x="500" y="563" as="targetPoint" />
          </mxGeometry>
        </mxCell>
        <mxCell id="T58Amd36gqd1ZXx2-vAG-129" value="" style="endArrow=classic;html=1;exitX=0.5;exitY=1;exitDx=0;exitDy=0;entryX=0.5;entryY=0;entryDx=0;entryDy=0;" edge="1" parent="1" source="T58Amd36gqd1ZXx2-vAG-49" target="T58Amd36gqd1ZXx2-vAG-48">
          <mxGeometry width="50" height="50" relative="1" as="geometry">
            <mxPoint x="640" y="450" as="sourcePoint" />
            <mxPoint x="690" y="400" as="targetPoint" />
          </mxGeometry>
        </mxCell>
        <mxCell id="T58Amd36gqd1ZXx2-vAG-130" value="" style="endArrow=classic;html=1;exitX=0.25;exitY=0;exitDx=0;exitDy=0;" edge="1" parent="1" source="T58Amd36gqd1ZXx2-vAG-49">
          <mxGeometry width="50" height="50" relative="1" as="geometry">
            <mxPoint x="420" y="420" as="sourcePoint" />
            <mxPoint x="550" y="563" as="targetPoint" />
          </mxGeometry>
        </mxCell>
        <mxCell id="T58Amd36gqd1ZXx2-vAG-132" value="" style="endArrow=classic;html=1;entryX=0.5;entryY=0;entryDx=0;entryDy=0;" edge="1" parent="1" target="T58Amd36gqd1ZXx2-vAG-49">
          <mxGeometry width="50" height="50" relative="1" as="geometry">
            <mxPoint x="550" y="575" as="sourcePoint" />
            <mxPoint x="470" y="370" as="targetPoint" />
          </mxGeometry>
        </mxCell>
        <mxCell id="T58Amd36gqd1ZXx2-vAG-133" value="" style="endArrow=classic;html=1;entryX=0;entryY=0.25;entryDx=0;entryDy=0;" edge="1" parent="1" target="T58Amd36gqd1ZXx2-vAG-50">
          <mxGeometry width="50" height="50" relative="1" as="geometry">
            <mxPoint x="590" y="563" as="sourcePoint" />
            <mxPoint x="470" y="370" as="targetPoint" />
          </mxGeometry>
        </mxCell>
        <mxCell id="T58Amd36gqd1ZXx2-vAG-134" value="" style="endArrow=classic;html=1;exitX=0;exitY=0.5;exitDx=0;exitDy=0;" edge="1" parent="1" source="T58Amd36gqd1ZXx2-vAG-50">
          <mxGeometry width="50" height="50" relative="1" as="geometry">
            <mxPoint x="420" y="420" as="sourcePoint" />
            <mxPoint x="590" y="575" as="targetPoint" />
          </mxGeometry>
        </mxCell>
        <mxCell id="T58Amd36gqd1ZXx2-vAG-136" value="" style="endArrow=classic;html=1;exitX=1;exitY=0.25;exitDx=0;exitDy=0;" edge="1" parent="1" source="T58Amd36gqd1ZXx2-vAG-50">
          <mxGeometry width="50" height="50" relative="1" as="geometry">
            <mxPoint x="420" y="420" as="sourcePoint" />
            <mxPoint x="660" y="563" as="targetPoint" />
          </mxGeometry>
        </mxCell>
        <mxCell id="T58Amd36gqd1ZXx2-vAG-138" value="" style="endArrow=classic;html=1;entryX=1;entryY=0.5;entryDx=0;entryDy=0;" edge="1" parent="1" target="T58Amd36gqd1ZXx2-vAG-50">
          <mxGeometry width="50" height="50" relative="1" as="geometry">
            <mxPoint x="660" y="575" as="sourcePoint" />
            <mxPoint x="470" y="370" as="targetPoint" />
          </mxGeometry>
        </mxCell>
        <mxCell id="T58Amd36gqd1ZXx2-vAG-139" value="" style="endArrow=classic;html=1;entryX=0;entryY=0.25;entryDx=0;entryDy=0;" edge="1" parent="1" target="T58Amd36gqd1ZXx2-vAG-51">
          <mxGeometry width="50" height="50" relative="1" as="geometry">
            <mxPoint x="760" y="563" as="sourcePoint" />
            <mxPoint x="650" y="370" as="targetPoint" />
          </mxGeometry>
        </mxCell>
        <mxCell id="T58Amd36gqd1ZXx2-vAG-140" value="" style="endArrow=classic;html=1;entryX=0;entryY=0.25;entryDx=0;entryDy=0;exitX=1;exitY=0.25;exitDx=0;exitDy=0;" edge="1" parent="1" source="T58Amd36gqd1ZXx2-vAG-51" target="T58Amd36gqd1ZXx2-vAG-52">
          <mxGeometry width="50" height="50" relative="1" as="geometry">
            <mxPoint x="600" y="420" as="sourcePoint" />
            <mxPoint x="650" y="370" as="targetPoint" />
          </mxGeometry>
        </mxCell>
        <mxCell id="T58Amd36gqd1ZXx2-vAG-141" value="" style="endArrow=classic;html=1;exitX=1;exitY=0.25;exitDx=0;exitDy=0;entryX=0;entryY=0.25;entryDx=0;entryDy=0;" edge="1" parent="1" source="T58Amd36gqd1ZXx2-vAG-52" target="T58Amd36gqd1ZXx2-vAG-53">
          <mxGeometry width="50" height="50" relative="1" as="geometry">
            <mxPoint x="600" y="420" as="sourcePoint" />
            <mxPoint x="650" y="370" as="targetPoint" />
          </mxGeometry>
        </mxCell>
        <mxCell id="T58Amd36gqd1ZXx2-vAG-142" value="" style="endArrow=classic;html=1;exitX=1;exitY=0.25;exitDx=0;exitDy=0;" edge="1" parent="1" source="T58Amd36gqd1ZXx2-vAG-53">
          <mxGeometry width="50" height="50" relative="1" as="geometry">
            <mxPoint x="600" y="420" as="sourcePoint" />
            <mxPoint x="960" y="560" as="targetPoint" />
          </mxGeometry>
        </mxCell>
        <mxCell id="T58Amd36gqd1ZXx2-vAG-143" value="" style="endArrow=none;dashed=1;html=1;dashPattern=1 3;strokeWidth=2;" edge="1" parent="1">
          <mxGeometry width="50" height="50" relative="1" as="geometry">
            <mxPoint x="990" y="560" as="sourcePoint" />
            <mxPoint x="1050" y="560" as="targetPoint" />
          </mxGeometry>
        </mxCell>
        <mxCell id="T58Amd36gqd1ZXx2-vAG-144" value="" style="endArrow=classic;html=1;exitX=0.227;exitY=0.056;exitDx=0;exitDy=0;exitPerimeter=0;entryX=0.3;entryY=0.667;entryDx=0;entryDy=0;entryPerimeter=0;" edge="1" parent="1" source="T58Amd36gqd1ZXx2-vAG-27" target="T58Amd36gqd1ZXx2-vAG-196">
          <mxGeometry width="50" height="50" relative="1" as="geometry">
            <mxPoint x="420" y="410" as="sourcePoint" />
            <mxPoint x="460" y="80" as="targetPoint" />
            <Array as="points">
              <mxPoint x="438" y="50" />
            </Array>
          </mxGeometry>
        </mxCell>
        <mxCell id="T58Amd36gqd1ZXx2-vAG-146" value="" style="shape=curlyBracket;whiteSpace=wrap;html=1;rounded=1;direction=south;size=0.13333333333333333;" vertex="1" parent="1">
          <mxGeometry x="250" y="260" width="245" height="150" as="geometry" />
        </mxCell>
        <mxCell id="T58Amd36gqd1ZXx2-vAG-147" value="" style="shape=curlyBracket;whiteSpace=wrap;html=1;rounded=1;direction=south;" vertex="1" parent="1">
          <mxGeometry x="10" y="510" width="280" height="40" as="geometry" />
        </mxCell>
        <mxCell id="T58Amd36gqd1ZXx2-vAG-148" value="" style="endArrow=classic;html=1;exitX=0;exitY=0.5;exitDx=0;exitDy=0;" edge="1" parent="1" source="T58Amd36gqd1ZXx2-vAG-47">
          <mxGeometry width="50" height="50" relative="1" as="geometry">
            <mxPoint x="200" y="570" as="sourcePoint" />
            <mxPoint x="413" y="505" as="targetPoint" />
          </mxGeometry>
        </mxCell>
        <mxCell id="T58Amd36gqd1ZXx2-vAG-149" value="" style="endArrow=classic;html=1;exitX=0;exitY=0.5;exitDx=0;exitDy=0;entryX=0.313;entryY=1;entryDx=0;entryDy=0;entryPerimeter=0;" edge="1" parent="1" source="T58Amd36gqd1ZXx2-vAG-48" target="T58Amd36gqd1ZXx2-vAG-39">
          <mxGeometry width="50" height="50" relative="1" as="geometry">
            <mxPoint x="200" y="570" as="sourcePoint" />
            <mxPoint x="250" y="520" as="targetPoint" />
          </mxGeometry>
        </mxCell>
        <mxCell id="T58Amd36gqd1ZXx2-vAG-150" value="" style="endArrow=classic;html=1;exitX=0;exitY=0.5;exitDx=0;exitDy=0;entryX=0.487;entryY=1.071;entryDx=0;entryDy=0;entryPerimeter=0;" edge="1" parent="1" source="T58Amd36gqd1ZXx2-vAG-49" target="T58Amd36gqd1ZXx2-vAG-39">
          <mxGeometry width="50" height="50" relative="1" as="geometry">
            <mxPoint x="465" y="550" as="sourcePoint" />
            <mxPoint x="511" y="505" as="targetPoint" />
          </mxGeometry>
        </mxCell>
        <mxCell id="T58Amd36gqd1ZXx2-vAG-151" value="" style="endArrow=classic;html=1;exitX=0.5;exitY=0;exitDx=0;exitDy=0;entryX=0.85;entryY=1;entryDx=0;entryDy=0;entryPerimeter=0;" edge="1" parent="1" source="T58Amd36gqd1ZXx2-vAG-50" target="T58Amd36gqd1ZXx2-vAG-39">
          <mxGeometry width="50" height="50" relative="1" as="geometry">
            <mxPoint x="200" y="570" as="sourcePoint" />
            <mxPoint x="250" y="520" as="targetPoint" />
          </mxGeometry>
        </mxCell>
        <mxCell id="T58Amd36gqd1ZXx2-vAG-152" value="Attention Matrix" style="text;html=1;strokeColor=none;fillColor=none;align=center;verticalAlign=middle;whiteSpace=wrap;rounded=0;" vertex="1" parent="1">
          <mxGeometry x="530" y="390" width="130" height="20" as="geometry" />
        </mxCell>
        <mxCell id="T58Amd36gqd1ZXx2-vAG-153" value="N- Gram Matrix" style="text;html=1;strokeColor=none;fillColor=none;align=center;verticalAlign=middle;whiteSpace=wrap;rounded=0;" vertex="1" parent="1">
          <mxGeometry x="15" y="370" width="125" height="30" as="geometry" />
        </mxCell>
        <mxCell id="T58Amd36gqd1ZXx2-vAG-154" value="Bi-LSTM" style="text;html=1;strokeColor=none;fillColor=none;align=center;verticalAlign=middle;whiteSpace=wrap;rounded=0;" vertex="1" parent="1">
          <mxGeometry x="550" y="530" width="60" height="20" as="geometry" />
        </mxCell>
        <mxCell id="T58Amd36gqd1ZXx2-vAG-155" value="LSTM" style="text;html=1;strokeColor=none;fillColor=none;align=center;verticalAlign=middle;whiteSpace=wrap;rounded=0;" vertex="1" parent="1">
          <mxGeometry x="790" y="510" width="80" height="30" as="geometry" />
        </mxCell>
        <mxCell id="T58Amd36gqd1ZXx2-vAG-156" value="CNN" style="text;html=1;strokeColor=none;fillColor=none;align=center;verticalAlign=middle;whiteSpace=wrap;rounded=0;" vertex="1" parent="1">
          <mxGeometry x="170" y="655" width="40" height="20" as="geometry" />
        </mxCell>
        <mxCell id="T58Amd36gqd1ZXx2-vAG-157" value="Encoder" style="text;html=1;strokeColor=none;fillColor=none;align=center;verticalAlign=middle;whiteSpace=wrap;rounded=0;" vertex="1" parent="1">
          <mxGeometry x="-130" y="670" width="110" height="40" as="geometry" />
        </mxCell>
        <mxCell id="T58Amd36gqd1ZXx2-vAG-160" value="" style="endArrow=classic;html=1;exitX=0.5;exitY=0;exitDx=0;exitDy=0;entryX=0.5;entryY=1;entryDx=0;entryDy=0;" edge="1" parent="1" source="T58Amd36gqd1ZXx2-vAG-108" target="T58Amd36gqd1ZXx2-vAG-87">
          <mxGeometry width="50" height="50" relative="1" as="geometry">
            <mxPoint x="100" y="690" as="sourcePoint" />
            <mxPoint x="150" y="640" as="targetPoint" />
          </mxGeometry>
        </mxCell>
        <mxCell id="T58Amd36gqd1ZXx2-vAG-161" value="" style="endArrow=classic;html=1;exitX=0.5;exitY=0;exitDx=0;exitDy=0;entryX=0.5;entryY=1;entryDx=0;entryDy=0;" edge="1" parent="1" source="T58Amd36gqd1ZXx2-vAG-109" target="T58Amd36gqd1ZXx2-vAG-96">
          <mxGeometry width="50" height="50" relative="1" as="geometry">
            <mxPoint x="100" y="690" as="sourcePoint" />
            <mxPoint x="150" y="640" as="targetPoint" />
          </mxGeometry>
        </mxCell>
        <mxCell id="T58Amd36gqd1ZXx2-vAG-166" value="" style="endArrow=classic;html=1;exitX=0.25;exitY=0;exitDx=0;exitDy=0;" edge="1" parent="1" source="T58Amd36gqd1ZXx2-vAG-110">
          <mxGeometry width="50" height="50" relative="1" as="geometry">
            <mxPoint x="100" y="690" as="sourcePoint" />
            <mxPoint x="160" y="790" as="targetPoint" />
          </mxGeometry>
        </mxCell>
        <mxCell id="T58Amd36gqd1ZXx2-vAG-167" value="" style="endArrow=classic;html=1;exitX=0.614;exitY=0.025;exitDx=0;exitDy=0;exitPerimeter=0;entryX=0.75;entryY=1;entryDx=0;entryDy=0;" edge="1" parent="1" source="T58Amd36gqd1ZXx2-vAG-111" target="T58Amd36gqd1ZXx2-vAG-106">
          <mxGeometry width="50" height="50" relative="1" as="geometry">
            <mxPoint x="100" y="690" as="sourcePoint" />
            <mxPoint x="150" y="640" as="targetPoint" />
          </mxGeometry>
        </mxCell>
        <mxCell id="T58Amd36gqd1ZXx2-vAG-168" value="Text" style="text;html=1;strokeColor=none;fillColor=none;align=center;verticalAlign=middle;whiteSpace=wrap;rounded=0;" vertex="1" parent="1">
          <mxGeometry x="110" y="810" width="40" height="20" as="geometry" />
        </mxCell>
        <mxCell id="T58Amd36gqd1ZXx2-vAG-169" value="Input Layer" style="text;html=1;strokeColor=none;fillColor=none;align=center;verticalAlign=middle;whiteSpace=wrap;rounded=0;" vertex="1" parent="1">
          <mxGeometry x="-130" y="870" width="90" height="20" as="geometry" />
        </mxCell>
        <mxCell id="T58Amd36gqd1ZXx2-vAG-170" value="w1" style="text;html=1;strokeColor=none;fillColor=none;align=center;verticalAlign=middle;whiteSpace=wrap;rounded=0;" vertex="1" parent="1">
          <mxGeometry x="10" y="950" width="40" height="20" as="geometry" />
        </mxCell>
        <mxCell id="T58Amd36gqd1ZXx2-vAG-171" value="w2" style="text;html=1;strokeColor=none;fillColor=none;align=center;verticalAlign=middle;whiteSpace=wrap;rounded=0;" vertex="1" parent="1">
          <mxGeometry x="110" y="950" width="40" height="20" as="geometry" />
        </mxCell>
        <mxCell id="T58Amd36gqd1ZXx2-vAG-172" value="w3" style="text;html=1;strokeColor=none;fillColor=none;align=center;verticalAlign=middle;whiteSpace=wrap;rounded=0;" vertex="1" parent="1">
          <mxGeometry x="210" y="950" width="40" height="20" as="geometry" />
        </mxCell>
        <mxCell id="T58Amd36gqd1ZXx2-vAG-173" value="wn" style="text;html=1;strokeColor=none;fillColor=none;align=center;verticalAlign=middle;whiteSpace=wrap;rounded=0;" vertex="1" parent="1">
          <mxGeometry x="360" y="950" width="40" height="20" as="geometry" />
        </mxCell>
        <mxCell id="T58Amd36gqd1ZXx2-vAG-174" value="" style="endArrow=classic;html=1;exitX=0.75;exitY=0;exitDx=0;exitDy=0;entryX=0.614;entryY=1.075;entryDx=0;entryDy=0;entryPerimeter=0;" edge="1" parent="1" source="T58Amd36gqd1ZXx2-vAG-170" target="T58Amd36gqd1ZXx2-vAG-108">
          <mxGeometry width="50" height="50" relative="1" as="geometry">
            <mxPoint x="100" y="840" as="sourcePoint" />
            <mxPoint x="150" y="790" as="targetPoint" />
          </mxGeometry>
        </mxCell>
        <mxCell id="T58Amd36gqd1ZXx2-vAG-176" value="" style="endArrow=classic;html=1;exitX=0.5;exitY=0;exitDx=0;exitDy=0;entryX=0.5;entryY=1;entryDx=0;entryDy=0;" edge="1" parent="1" source="T58Amd36gqd1ZXx2-vAG-171" target="T58Amd36gqd1ZXx2-vAG-109">
          <mxGeometry width="50" height="50" relative="1" as="geometry">
            <mxPoint x="100" y="840" as="sourcePoint" />
            <mxPoint x="150" y="790" as="targetPoint" />
          </mxGeometry>
        </mxCell>
        <mxCell id="T58Amd36gqd1ZXx2-vAG-177" value="" style="endArrow=classic;html=1;exitX=0.25;exitY=0;exitDx=0;exitDy=0;entryX=0.414;entryY=1;entryDx=0;entryDy=0;entryPerimeter=0;" edge="1" parent="1" source="T58Amd36gqd1ZXx2-vAG-172" target="T58Amd36gqd1ZXx2-vAG-110">
          <mxGeometry width="50" height="50" relative="1" as="geometry">
            <mxPoint x="100" y="840" as="sourcePoint" />
            <mxPoint x="150" y="790" as="targetPoint" />
          </mxGeometry>
        </mxCell>
        <mxCell id="T58Amd36gqd1ZXx2-vAG-178" value="" style="endArrow=classic;html=1;exitX=0.5;exitY=0;exitDx=0;exitDy=0;entryX=0.5;entryY=1;entryDx=0;entryDy=0;" edge="1" parent="1" source="T58Amd36gqd1ZXx2-vAG-173" target="T58Amd36gqd1ZXx2-vAG-111">
          <mxGeometry width="50" height="50" relative="1" as="geometry">
            <mxPoint x="100" y="840" as="sourcePoint" />
            <mxPoint x="150" y="790" as="targetPoint" />
          </mxGeometry>
        </mxCell>
        <mxCell id="T58Amd36gqd1ZXx2-vAG-181" value="" style="endArrow=none;dashed=1;html=1;" edge="1" parent="1">
          <mxGeometry width="50" height="50" relative="1" as="geometry">
            <mxPoint x="270" y="960" as="sourcePoint" />
            <mxPoint x="330" y="960" as="targetPoint" />
          </mxGeometry>
        </mxCell>
        <mxCell id="T58Amd36gqd1ZXx2-vAG-185" value="" style="edgeStyle=elbowEdgeStyle;elbow=vertical;endArrow=classic;html=1;exitX=0.75;exitY=0;exitDx=0;exitDy=0;entryX=1;entryY=0.5;entryDx=0;entryDy=0;" edge="1" parent="1" source="T58Amd36gqd1ZXx2-vAG-108" target="T58Amd36gqd1ZXx2-vAG-47">
          <mxGeometry width="50" height="50" relative="1" as="geometry">
            <mxPoint x="270" y="870" as="sourcePoint" />
            <mxPoint x="440" y="760" as="targetPoint" />
            <Array as="points">
              <mxPoint x="280" y="820" />
              <mxPoint x="240" y="820" />
            </Array>
          </mxGeometry>
        </mxCell>
        <mxCell id="T58Amd36gqd1ZXx2-vAG-187" value="" style="edgeStyle=elbowEdgeStyle;elbow=vertical;endArrow=classic;html=1;entryX=1;entryY=0.5;entryDx=0;entryDy=0;exitX=0.75;exitY=0;exitDx=0;exitDy=0;" edge="1" parent="1" source="T58Amd36gqd1ZXx2-vAG-109" target="T58Amd36gqd1ZXx2-vAG-48">
          <mxGeometry width="50" height="50" relative="1" as="geometry">
            <mxPoint x="270" y="870" as="sourcePoint" />
            <mxPoint x="320" y="820" as="targetPoint" />
            <Array as="points">
              <mxPoint x="290" y="840" />
            </Array>
          </mxGeometry>
        </mxCell>
        <mxCell id="T58Amd36gqd1ZXx2-vAG-189" value="" style="edgeStyle=elbowEdgeStyle;elbow=vertical;endArrow=classic;html=1;exitX=0.75;exitY=0;exitDx=0;exitDy=0;entryX=1;entryY=0.25;entryDx=0;entryDy=0;" edge="1" parent="1" source="T58Amd36gqd1ZXx2-vAG-110" target="T58Amd36gqd1ZXx2-vAG-49">
          <mxGeometry width="50" height="50" relative="1" as="geometry">
            <mxPoint x="270" y="870" as="sourcePoint" />
            <mxPoint x="320" y="820" as="targetPoint" />
            <Array as="points">
              <mxPoint x="360" y="810" />
            </Array>
          </mxGeometry>
        </mxCell>
        <mxCell id="T58Amd36gqd1ZXx2-vAG-190" value="" style="edgeStyle=segmentEdgeStyle;endArrow=classic;html=1;entryX=0.5;entryY=1;entryDx=0;entryDy=0;" edge="1" parent="1" target="T58Amd36gqd1ZXx2-vAG-50">
          <mxGeometry width="50" height="50" relative="1" as="geometry">
            <mxPoint x="410" y="880" as="sourcePoint" />
            <mxPoint x="460" y="830" as="targetPoint" />
          </mxGeometry>
        </mxCell>
        <mxCell id="T58Amd36gqd1ZXx2-vAG-191" value="Context Vector" style="text;html=1;strokeColor=none;fillColor=none;align=center;verticalAlign=middle;whiteSpace=wrap;rounded=0;" vertex="1" parent="1">
          <mxGeometry x="320" y="130" width="90" height="40" as="geometry" />
        </mxCell>
        <mxCell id="T58Amd36gqd1ZXx2-vAG-193" value="Decoder" style="text;html=1;strokeColor=none;fillColor=none;align=center;verticalAlign=middle;whiteSpace=wrap;rounded=0;" vertex="1" parent="1">
          <mxGeometry x="940" y="510" width="70" height="30" as="geometry" />
        </mxCell>
        <mxCell id="T58Amd36gqd1ZXx2-vAG-196" value="x(1-p)" style="text;html=1;strokeColor=none;fillColor=none;align=center;verticalAlign=middle;whiteSpace=wrap;rounded=0;" vertex="1" parent="1">
          <mxGeometry x="465" y="30" width="75" height="30" as="geometry" />
        </mxCell>
        <mxCell id="T58Amd36gqd1ZXx2-vAG-197" value="p" style="text;html=1;align=center;verticalAlign=middle;resizable=0;points=[];autosize=1;" vertex="1" parent="1">
          <mxGeometry x="770" y="30" width="20" height="20" as="geometry" />
        </mxCell>
        <mxCell id="T58Amd36gqd1ZXx2-vAG-198" value="" style="endArrow=classic;html=1;entryX=0.55;entryY=0.95;entryDx=0;entryDy=0;entryPerimeter=0;exitX=1;exitY=1;exitDx=0;exitDy=0;exitPerimeter=0;" edge="1" parent="1" source="T58Amd36gqd1ZXx2-vAG-120" target="T58Amd36gqd1ZXx2-vAG-197">
          <mxGeometry width="50" height="50" relative="1" as="geometry">
            <mxPoint x="620" y="360" as="sourcePoint" />
            <mxPoint x="670" y="310" as="targetPoint" />
            <Array as="points">
              <mxPoint x="781" y="150" />
            </Array>
          </mxGeometry>
        </mxCell>
        <mxCell id="T58Amd36gqd1ZXx2-vAG-199" value="" style="endArrow=classic;html=1;exitX=1;exitY=0;exitDx=0;exitDy=0;exitPerimeter=0;entryX=0.5;entryY=1;entryDx=0;entryDy=0;" edge="1" parent="1" source="T58Amd36gqd1ZXx2-vAG-120" target="T58Amd36gqd1ZXx2-vAG-196">
          <mxGeometry width="50" height="50" relative="1" as="geometry">
            <mxPoint x="620" y="360" as="sourcePoint" />
            <mxPoint x="670" y="310" as="targetPoint" />
            <Array as="points">
              <mxPoint x="500" y="150" />
            </Array>
          </mxGeometry>
        </mxCell>
        <mxCell id="T58Amd36gqd1ZXx2-vAG-200" value="" style="endArrow=classic;html=1;entryX=0;entryY=0.5;entryDx=0;entryDy=0;" edge="1" parent="1" source="T58Amd36gqd1ZXx2-vAG-196" target="T58Amd36gqd1ZXx2-vAG-46">
          <mxGeometry width="50" height="50" relative="1" as="geometry">
            <mxPoint x="620" y="360" as="sourcePoint" />
            <mxPoint x="670" y="310" as="targetPoint" />
          </mxGeometry>
        </mxCell>
        <mxCell id="T58Amd36gqd1ZXx2-vAG-201" value="" style="endArrow=classic;html=1;entryX=1;entryY=0.5;entryDx=0;entryDy=0;" edge="1" parent="1" target="T58Amd36gqd1ZXx2-vAG-46">
          <mxGeometry width="50" height="50" relative="1" as="geometry">
            <mxPoint x="760" y="40" as="sourcePoint" />
            <mxPoint x="670" y="310" as="targetPoint" />
          </mxGeometry>
        </mxCell>
        <mxCell id="T58Amd36gqd1ZXx2-vAG-203" value="p" style="text;html=1;strokeColor=none;fillColor=none;align=center;verticalAlign=middle;whiteSpace=wrap;rounded=0;" vertex="1" parent="1">
          <mxGeometry x="580" y="230" width="40" height="20" as="geometry" />
        </mxCell>
        <mxCell id="T58Amd36gqd1ZXx2-vAG-204" value="Vocabulary List" style="text;html=1;strokeColor=none;fillColor=none;align=center;verticalAlign=middle;whiteSpace=wrap;rounded=0;" vertex="1" parent="1">
          <mxGeometry x="930" y="160" width="70" height="20" as="geometry" />
        </mxCell>
      </root>
    </mxGraphModel>
  </diagram>
</mxfile>
